<?xml version="1.0" standalone="no"?>
<!DOCTYPE svg PUBLIC "-//W3C//DTD SVG 20010904//EN"
 "http://www.w3.org/TR/2001/REC-SVG-20010904/DTD/svg10.dtd">
<svg version="1.0" xmlns="http://www.w3.org/2000/svg"
 width="601.000000pt" height="568.000000pt" viewBox="0 0 601.000000 568.000000"
 preserveAspectRatio="xMidYMid meet">

<g transform="translate(0.000000,568.000000) scale(0.100000,-0.100000)"
fill="#000000" stroke="none">
<path d="M2613 5470 c-39 -16 -56 -77 -33 -120 13 -25 65 -41 94 -30 30 11 56
47 56 78 0 28 -51 82 -77 81 -10 0 -28 -4 -40 -9z"/>
<path d="M5567 5419 c-54 -31 -52 -126 4 -154 35 -19 53 -19 88 0 79 41 50
165 -38 165 -20 0 -44 -5 -54 -11z"/>
<path d="M710 5403 c-40 -21 -80 -75 -80 -110 0 -73 61 -133 138 -133 114 0
166 163 73 229 -41 30 -90 35 -131 14z"/>
<path d="M4034 5401 c-94 -57 -111 -170 -38 -250 136 -151 372 43 249 204 -14
19 -39 42 -55 50 -41 21 -118 19 -156 -4z"/>
<path d="M2183 5375 c-58 -25 -64 -102 -11 -139 34 -24 66 -19 100 14 25 26
29 36 24 62 -12 61 -58 86 -113 63z"/>
<path d="M2672 5278 c-16 -16 -15 -33 3 -67 14 -27 13 -31 -14 -71 -36 -54
-98 -96 -162 -109 -64 -14 -66 -14 -127 4 -75 23 -112 57 -112 106 0 26 -5 42
-15 45 -22 9 -45 -14 -45 -43 0 -35 -17 -62 -46 -73 -33 -13 -42 -39 -20 -56
13 -9 25 -10 43 -3 41 15 42 11 16 -55 -33 -82 -27 -122 24 -166 32 -29 41
-32 81 -27 57 6 90 39 118 115 l22 57 55 7 c99 13 196 74 243 154 17 28 33 44
46 44 30 0 58 19 58 39 0 21 -19 31 -61 31 -23 0 -34 8 -54 40 -27 43 -34 47
-53 28z"/>
<path d="M5033 5265 c-50 -35 -46 -123 7 -150 63 -33 126 -2 137 67 5 32 1 41
-25 68 -34 34 -83 40 -119 15z"/>
<path d="M3178 5120 c-98 -53 -113 -187 -29 -263 70 -63 164 -59 228 9 68 72
54 185 -30 248 -38 28 -122 32 -169 6z"/>
<path d="M475 5065 c-29 -28 -31 -59 -10 -160 64 -307 367 -499 673 -430 119
27 165 74 128 130 -24 36 -56 40 -125 15 -89 -33 -211 -26 -303 17 -138 65
-232 195 -245 338 -9 107 -61 147 -118 90z"/>
<path d="M1303 5015 c-41 -18 -73 -69 -73 -118 0 -138 185 -178 241 -51 16 36
18 50 10 82 -12 43 -42 75 -84 91 -37 14 -55 13 -94 -4z"/>
<path d="M4271 4923 c-12 -10 -33 -49 -46 -87 -79 -220 -272 -356 -502 -356
-128 0 -226 32 -322 104 -82 61 -173 8 -148 -86 13 -50 179 -147 307 -179 90
-22 261 -18 350 10 162 50 291 138 381 260 53 71 104 183 115 249 6 37 3 44
-24 72 -35 35 -78 40 -111 13z"/>
<path d="M4707 4610 c-64 -35 -99 -119 -62 -150 21 -18 50 -4 66 33 19 42 56
60 97 46 31 -11 49 -41 54 -94 2 -23 9 -31 26 -33 35 -5 52 15 52 63 0 113
-132 189 -233 135z"/>
<path d="M1794 4551 c-60 -37 -89 -92 -62 -119 21 -21 45 -13 72 23 22 28 34
35 61 35 43 0 76 -39 73 -84 -2 -41 8 -56 38 -56 26 0 44 30 44 74 0 39 -43
108 -80 127 -44 24 -107 24 -146 0z"/>
<path d="M5405 4476 c-81 -36 -122 -143 -62 -162 15 -5 25 -1 37 15 44 64 57
74 89 73 45 -1 69 -26 73 -74 2 -29 10 -45 25 -55 19 -13 24 -12 42 6 27 27
27 66 -1 121 -38 74 -130 108 -203 76z"/>
<path d="M2430 4351 c-35 -18 -80 -73 -80 -97 0 -15 27 -44 41 -44 8 0 22 13
64 63 20 23 56 22 89 -4 21 -16 26 -29 26 -64 0 -34 5 -47 20 -55 15 -8 24 -6
40 10 46 46 9 154 -65 190 -51 25 -90 25 -135 1z"/>
<path d="M4618 4333 c-25 -28 -32 -127 -14 -210 22 -106 60 -178 136 -256 l67
-68 -13 -57 c-29 -120 -14 -194 49 -249 70 -62 162 -66 237 -11 48 34 73 84
91 180 12 63 14 68 43 74 110 23 256 138 308 244 38 77 55 146 42 168 -9 13
-111 38 -435 104 -540 111 -491 104 -511 81z"/>
<path d="M1692 4308 c-18 -23 -32 -91 -32 -158 0 -82 22 -169 60 -235 35 -61
130 -154 185 -183 154 -78 336 -68 481 26 73 47 122 106 163 191 33 70 30 93
-12 111 -41 18 -804 260 -819 260 -9 0 -20 -6 -26 -12z"/>
<path d="M804 3996 c-49 -22 -74 -61 -74 -118 0 -43 4 -54 34 -84 30 -30 41
-34 84 -34 55 0 92 22 117 70 19 37 19 64 -1 105 -28 60 -101 87 -160 61z"/>
<path d="M3689 3811 c-24 -24 -29 -38 -29 -76 0 -38 5 -52 29 -76 56 -56 146
-36 177 38 30 72 -21 143 -103 143 -36 0 -50 -6 -74 -29z"/>
<path d="M667 3715 c-37 -42 -82 -53 -139 -34 -47 15 -71 5 -76 -33 -3 -28 19
-51 62 -65 17 -5 31 -14 33 -19 2 -5 -37 -30 -87 -54 -100 -49 -122 -67 -145
-122 -42 -101 8 -210 114 -246 55 -19 81 -14 184 35 68 32 102 44 111 38 70
-54 153 -100 211 -118 93 -29 235 -29 317 0 l57 20 27 -29 c34 -34 57 -42 84
-28 32 17 25 58 -15 97 -39 37 -45 78 -23 139 10 29 9 36 -7 54 -10 11 -26 20
-36 20 -24 0 -55 -42 -63 -85 -11 -56 -48 -70 -181 -70 -99 0 -116 3 -168 27
-122 57 -223 191 -235 311 -4 44 -2 50 32 84 41 42 46 75 14 97 -31 22 -36 21
-71 -19z"/>
<path d="M1378 3635 c-36 -20 -58 -64 -58 -115 0 -59 49 -110 110 -117 116
-11 180 120 101 209 -22 25 -37 31 -77 34 -32 3 -58 -1 -76 -11z"/>
<path d="M3626 3576 c-40 -44 -75 -58 -117 -46 -44 13 -71 -3 -67 -38 2 -22
11 -30 50 -42 27 -8 48 -17 48 -20 -1 -3 -35 -27 -78 -55 -59 -39 -82 -60
-100 -95 -53 -103 20 -223 136 -224 39 -1 61 7 122 44 41 25 79 47 83 48 4 2
38 -12 75 -31 90 -47 157 -61 257 -54 60 3 99 12 141 31 49 23 59 24 73 12 33
-28 60 -37 81 -26 31 17 24 47 -21 90 -41 39 -42 40 -35 91 7 55 -3 79 -35 79
-25 0 -49 -38 -49 -78 0 -31 -4 -35 -57 -59 -85 -39 -185 -38 -274 4 -85 39
-129 79 -166 150 -47 89 -48 105 -12 156 25 37 29 48 20 65 -19 35 -41 35 -75
-2z"/>
<path d="M4272 3588 c-57 -15 -89 -96 -61 -151 33 -64 116 -77 171 -28 63 56
37 156 -47 179 -17 5 -45 5 -63 0z"/>
<path d="M2703 3491 c-61 -39 -81 -117 -43 -178 68 -113 240 -64 240 68 0 42
-5 55 -33 85 -28 31 -41 37 -83 41 -37 3 -57 -1 -81 -16z"/>
<path d="M5174 3344 c-37 -18 -64 -62 -64 -104 0 -104 117 -158 194 -89 64 56
56 145 -16 189 -39 24 -72 25 -114 4z"/>
<path d="M5833 3295 c-38 -16 -73 -68 -73 -108 0 -40 26 -84 60 -102 90 -46
190 20 177 117 -6 46 -29 75 -74 94 -40 17 -49 17 -90 -1z"/>
<path d="M1969 3185 c-57 -31 -81 -108 -52 -165 35 -68 111 -97 173 -65 93 48
102 174 16 226 -36 22 -100 24 -137 4z"/>
<path d="M5112 2964 c-47 -33 -13 -114 90 -210 197 -185 513 -180 706 12 68
68 77 99 42 134 -34 34 -66 25 -116 -29 -87 -94 -227 -143 -348 -120 -115 21
-189 69 -268 177 -42 56 -66 64 -106 36z"/>
<path d="M1490 2699 c-60 -25 -100 -85 -100 -149 0 -54 15 -80 45 -80 30 0 47
29 39 68 -8 41 31 85 75 85 26 0 41 -9 72 -43 37 -40 40 -42 61 -28 13 9 24
22 26 30 4 18 -36 76 -70 101 -31 23 -111 32 -148 16z"/>
<path d="M4453 2535 c-68 -29 -93 -122 -50 -186 27 -40 60 -59 105 -59 136 0
181 185 59 243 -42 20 -71 21 -114 2z"/>
<path d="M804 2471 c-53 -24 -86 -71 -92 -131 -5 -57 10 -90 42 -90 33 0 44
18 43 68 -2 52 26 82 77 82 24 0 39 -9 67 -41 28 -33 40 -40 57 -35 43 14 34
73 -20 123 -49 46 -108 54 -174 24z"/>
<path d="M1254 2297 c-237 -78 -439 -148 -448 -156 -23 -20 -20 -40 19 -118
65 -130 204 -236 347 -264 l57 -11 27 -82 c33 -98 84 -157 153 -176 84 -22
187 25 225 104 23 48 20 121 -8 203 l-24 71 25 24 c44 41 102 138 123 207 24
76 29 202 10 271 -15 55 -26 70 -54 69 -11 0 -215 -64 -452 -142z"/>
<path d="M3663 2420 c-118 -71 -75 -240 60 -240 76 0 127 54 127 133 0 98
-104 158 -187 107z"/>
<path d="M5664 2191 c-59 -36 -69 -124 -19 -171 15 -14 41 -24 69 -27 42 -5
48 -3 81 30 25 25 35 44 35 66 0 44 -25 88 -60 106 -39 20 -68 19 -106 -4z"/>
<path d="M2910 2187 c-13 -7 -35 -28 -48 -47 -34 -50 -26 -104 22 -147 78 -71
196 -18 196 87 0 85 -95 145 -170 107z"/>
<path d="M4125 2103 c-534 -76 -507 -66 -486 -165 36 -173 176 -330 349 -390
94 -32 248 -32 344 0 215 74 362 280 361 509 0 98 -9 113 -67 112 -22 0 -248
-30 -501 -66z"/>
<path d="M5125 1990 c-26 -10 -61 -49 -70 -78 -9 -32 12 -88 42 -112 48 -38
137 -18 161 35 28 60 8 121 -48 150 -32 17 -55 18 -85 5z"/>
<path d="M2264 1936 c-45 -45 -48 -108 -8 -155 76 -91 211 -41 208 78 -1 38
-6 49 -37 78 -31 27 -44 33 -83 33 -39 0 -51 -5 -80 -34z"/>
<path d="M5769 1939 c-9 -17 -6 -29 19 -68 l29 -48 -18 -49 c-63 -168 -276
-261 -448 -195 -69 26 -91 47 -91 85 0 35 -24 76 -45 76 -30 0 -45 -29 -38
-75 6 -51 -12 -89 -52 -107 -35 -16 -43 -48 -16 -69 24 -19 40 -17 84 13 26
18 27 19 27 1 -1 -10 -7 -45 -15 -78 -20 -83 -18 -123 8 -169 60 -108 221
-106 276 3 10 20 24 69 31 109 l13 72 41 11 c103 26 158 57 233 130 46 46 96
126 117 192 3 10 15 17 30 17 46 0 56 10 56 52 l0 40 -44 -6 c-55 -9 -90 7
-116 51 -23 39 -63 45 -81 12z"/>
<path d="M3077 1832 c-10 -10 -17 -25 -17 -33 0 -30 -60 -139 -98 -177 -72
-72 -188 -122 -282 -122 -57 0 -151 28 -201 60 -53 34 -89 38 -112 12 -39 -43
-9 -95 82 -142 191 -97 440 -57 595 96 113 110 173 278 113 316 -22 14 -64 8
-80 -10z"/>
<path d="M482 1450 c-38 -24 -69 -86 -54 -110 16 -25 40 -23 58 7 10 15 24 34
33 41 39 32 101 -3 101 -58 0 -34 26 -54 53 -39 23 14 22 75 -3 116 -37 62
-124 82 -188 43z"/>
<path d="M1084 1351 c-33 -15 -74 -70 -74 -101 0 -36 38 -53 55 -25 5 9 18 28
28 41 36 46 107 21 107 -39 0 -28 26 -60 44 -54 23 7 36 52 26 88 -15 55 -60
91 -117 95 -26 2 -57 0 -69 -5z"/>
<path d="M410 1211 c-16 -31 -12 -144 9 -210 49 -157 170 -263 334 -291 126
-22 254 18 352 111 85 80 149 227 112 257 -15 13 -723 152 -771 152 -15 0 -30
-8 -36 -19z"/>
<path d="M3510 1028 c-76 -39 -118 -132 -71 -158 27 -14 47 -4 70 36 34 58 89
66 139 21 17 -16 22 -32 22 -67 0 -51 13 -70 46 -70 32 0 48 26 48 78 -1 136
-136 221 -254 160z"/>
<path d="M5034 911 c-45 -28 -64 -59 -64 -107 0 -49 31 -94 80 -114 74 -31
160 31 160 115 0 92 -102 153 -176 106z"/>
<path d="M2584 900 c-32 -13 -64 -59 -64 -92 0 -92 100 -141 169 -82 89 75 3
218 -105 174z"/>
<path d="M1942 840 c-61 -37 -69 -105 -18 -156 26 -26 42 -34 71 -34 45 0 105
53 105 93 0 60 -52 117 -105 117 -11 0 -35 -9 -53 -20z"/>
<path d="M4300 823 c-53 -19 -84 -40 -106 -72 -27 -40 -31 -83 -9 -101 20 -17
62 -5 70 20 19 61 102 81 145 35 19 -20 24 -36 22 -70 -1 -35 3 -47 19 -58 70
-50 106 82 46 171 -37 54 -135 94 -187 75z"/>
<path d="M3372 687 c-30 -31 -28 -65 8 -150 140 -334 540 -482 867 -321 89 44
153 101 153 137 0 14 -11 38 -23 53 -34 39 -70 36 -141 -15 -151 -105 -371
-110 -527 -10 -94 60 -170 158 -200 257 -7 24 -22 50 -33 58 -31 22 -79 18
-104 -9z"/>
<path d="M5743 666 c-41 -19 -73 -70 -73 -118 0 -27 8 -47 31 -72 74 -85 209
-38 211 74 1 89 -90 151 -169 116z"/>
<path d="M2285 570 c-181 -16 -338 -29 -347 -29 -73 -3 -12 -208 93 -313 203
-203 553 -141 682 121 29 59 32 74 32 156 l0 90 -65 1 c-36 1 -213 -11 -395
-26z"/>
<path d="M1315 581 c-64 -26 -82 -118 -34 -167 16 -16 41 -28 67 -31 37 -5 45
-2 77 30 48 48 49 95 1 143 -35 35 -68 42 -111 25z"/>
<path d="M671 444 c-38 -32 -49 -80 -27 -123 35 -67 122 -78 170 -20 81 96
-47 224 -143 143z"/>
</g>
</svg>
